<svg width="51" height="51" viewBox="0 0 51 51" fill="none" xmlns="http://www.w3.org/2000/svg">
<path d="M18.6394 15.7828C19.0206 15.793 19.4432 15.8136 19.8452 16.7061C20.1118 17.3002 20.5609 18.3939 20.9268 19.2849C21.2116 19.9782 21.4458 20.5487 21.5043 20.6655C21.6383 20.9322 21.7208 21.2399 21.5455 21.5988C21.5249 21.6412 21.5055 21.6816 21.4866 21.7206C21.3462 22.0122 21.2462 22.2199 21.0097 22.4912C20.9126 22.6029 20.8114 22.7252 20.7105 22.847C20.5331 23.0614 20.3569 23.2743 20.2059 23.4247C19.9379 23.6912 19.6596 23.9787 19.9687 24.512C20.278 25.0454 21.3601 26.7995 22.9576 28.2149C24.6749 29.7439 26.1683 30.3883 26.9233 30.7139C27.0697 30.7772 27.1885 30.8285 27.2755 30.8718C27.8116 31.1385 28.131 31.0975 28.4401 30.7385C28.7495 30.3793 29.7799 29.1791 30.1408 28.6458C30.4912 28.1124 30.8518 28.1945 31.3466 28.3791C31.8412 28.5637 34.4795 29.8562 35.0153 30.1229C35.1212 30.1756 35.2203 30.2231 35.3122 30.2672C35.6849 30.446 35.9385 30.5675 36.046 30.7487C36.1799 30.9743 36.1799 32.0412 35.7368 33.2927C35.2835 34.5439 33.0985 35.7441 32.1091 35.8364C32.0153 35.8454 31.9222 35.8566 31.8262 35.8681C30.9195 35.9779 29.7687 36.117 25.6678 34.5029C20.615 32.516 17.2795 27.586 16.6052 26.5893C16.552 26.5106 16.5153 26.4564 16.4957 26.4302L16.4843 26.4149C16.1775 26.0043 14.3005 23.4929 14.3005 20.9015C14.3005 18.4223 15.5218 17.1315 16.0789 16.5428C16.1142 16.5055 16.1468 16.471 16.1763 16.4392C16.6709 15.9059 17.2481 15.7726 17.6088 15.7726C17.9696 15.7726 18.3303 15.7726 18.6394 15.7828Z" fill="#0C1350"/>
<path fill-rule="evenodd" clip-rule="evenodd" d="M4.67738 45.286C4.50692 45.9047 5.07045 46.4758 5.69138 46.3137L15.29 43.8066C18.3199 45.4477 21.7312 46.3195 25.2043 46.3195H25.2147C36.6439 46.3195 45.9603 37.057 45.9603 25.6712C45.9603 20.1526 43.8062 14.9621 39.8901 11.0641C35.9739 7.16634 30.7695 5.01224 25.2145 5.01224C13.7855 5.01224 4.4689 14.2748 4.4689 25.661C4.46759 29.2831 5.42367 32.8418 7.24115 35.9799L4.67738 45.286ZM10.2539 36.8099C10.4765 36.0022 10.3653 35.1389 9.94536 34.4137C8.40338 31.7514 7.5928 28.732 7.5939 25.661C7.5939 16.0155 15.4966 8.13724 25.2145 8.13724C29.9435 8.13724 34.3553 9.96428 37.6856 13.279C41.012 16.5901 42.8353 20.9833 42.8353 25.6712C42.8353 35.3162 34.9328 43.1945 25.2147 43.1945H25.2043C22.2533 43.1945 19.3533 42.4535 16.7784 41.0587C16.0815 40.6812 15.2671 40.5827 14.5003 40.7831L8.74526 42.2862L10.2539 36.8099Z" fill="#0C1350"/>
</svg>
